<mxfile host="app.diagrams.net" modified="2022-10-03T17:24:52.597Z" agent="5.0 (Windows NT 10.0; Win64; x64) AppleWebKit/537.36 (KHTML, like Gecko) Chrome/105.0.0.0 Safari/537.36" etag="wvyrhdWW7u5H2u1-T1g1" version="20.4.0" type="github">
  <diagram id="R2lEEEUBdFMjLlhIrx00" name="Page-1">
    <mxGraphModel dx="1778" dy="943" grid="1" gridSize="10" guides="1" tooltips="1" connect="1" arrows="1" fold="1" page="1" pageScale="1" pageWidth="1654" pageHeight="1169" math="0" shadow="0" extFonts="Permanent Marker^https://fonts.googleapis.com/css?family=Permanent+Marker">
      <root>
        <mxCell id="0" />
        <mxCell id="1" parent="0" />
        <mxCell id="tq_J3AxKNNJbVarFtTaU-68" style="edgeStyle=orthogonalEdgeStyle;rounded=0;orthogonalLoop=1;jettySize=auto;html=1;exitX=0.5;exitY=0;exitDx=0;exitDy=0;entryX=0.75;entryY=1;entryDx=0;entryDy=0;fontSize=13;" edge="1" parent="1" source="tq_J3AxKNNJbVarFtTaU-61" target="tq_J3AxKNNJbVarFtTaU-8">
          <mxGeometry relative="1" as="geometry" />
        </mxCell>
        <mxCell id="tq_J3AxKNNJbVarFtTaU-61" value="" style="rounded=1;whiteSpace=wrap;html=1;fillColor=#f8cecc;strokeColor=#b85450;" vertex="1" parent="1">
          <mxGeometry x="620" y="915" width="470" height="210" as="geometry" />
        </mxCell>
        <mxCell id="tq_J3AxKNNJbVarFtTaU-38" value="" style="rounded=1;whiteSpace=wrap;html=1;fillColor=#dae8fc;strokeColor=#6c8ebf;" vertex="1" parent="1">
          <mxGeometry x="600" y="200" width="490" height="110" as="geometry" />
        </mxCell>
        <mxCell id="tq_J3AxKNNJbVarFtTaU-39" value="&lt;b&gt;&lt;font style=&quot;font-size: 13px;&quot;&gt;Infra&lt;/font&gt;&lt;/b&gt;" style="text;html=1;align=center;verticalAlign=middle;resizable=0;points=[];autosize=1;strokeColor=none;fillColor=none;" vertex="1" parent="1">
          <mxGeometry x="1025" y="170" width="50" height="30" as="geometry" />
        </mxCell>
        <mxCell id="tq_J3AxKNNJbVarFtTaU-33" value="" style="rounded=1;whiteSpace=wrap;html=1;fillColor=#d5e8d4;strokeColor=#82b366;" vertex="1" parent="1">
          <mxGeometry x="620" y="395" width="470" height="210" as="geometry" />
        </mxCell>
        <mxCell id="tq_J3AxKNNJbVarFtTaU-30" value="" style="rounded=1;whiteSpace=wrap;html=1;fillColor=#fff2cc;strokeColor=#d6b656;" vertex="1" parent="1">
          <mxGeometry x="1120" y="665" width="260" height="210" as="geometry" />
        </mxCell>
        <mxCell id="tq_J3AxKNNJbVarFtTaU-25" value="" style="rounded=1;whiteSpace=wrap;html=1;fillColor=#f5f5f5;fontColor=#333333;strokeColor=#666666;" vertex="1" parent="1">
          <mxGeometry x="350" y="665" width="250" height="210" as="geometry" />
        </mxCell>
        <mxCell id="tq_J3AxKNNJbVarFtTaU-12" style="edgeStyle=orthogonalEdgeStyle;rounded=0;orthogonalLoop=1;jettySize=auto;html=1;entryX=0.5;entryY=1;entryDx=0;entryDy=0;fontSize=13;" edge="1" parent="1" source="tq_J3AxKNNJbVarFtTaU-8" target="tq_J3AxKNNJbVarFtTaU-10">
          <mxGeometry relative="1" as="geometry" />
        </mxCell>
        <mxCell id="tq_J3AxKNNJbVarFtTaU-8" value="" style="rounded=1;whiteSpace=wrap;html=1;fillColor=#ffe6cc;strokeColor=#d79b00;" vertex="1" parent="1">
          <mxGeometry x="620" y="665" width="470" height="210" as="geometry" />
        </mxCell>
        <mxCell id="tq_J3AxKNNJbVarFtTaU-22" style="edgeStyle=orthogonalEdgeStyle;rounded=0;orthogonalLoop=1;jettySize=auto;html=1;exitX=0;exitY=0.5;exitDx=0;exitDy=0;fontSize=13;" edge="1" parent="1" source="tq_J3AxKNNJbVarFtTaU-1" target="tq_J3AxKNNJbVarFtTaU-21">
          <mxGeometry relative="1" as="geometry" />
        </mxCell>
        <mxCell id="tq_J3AxKNNJbVarFtTaU-32" style="edgeStyle=orthogonalEdgeStyle;rounded=0;orthogonalLoop=1;jettySize=auto;html=1;exitX=1;exitY=0.5;exitDx=0;exitDy=0;entryX=0;entryY=0.5;entryDx=0;entryDy=0;fontSize=13;" edge="1" parent="1" source="tq_J3AxKNNJbVarFtTaU-1" target="tq_J3AxKNNJbVarFtTaU-29">
          <mxGeometry relative="1" as="geometry" />
        </mxCell>
        <mxCell id="tq_J3AxKNNJbVarFtTaU-69" style="edgeStyle=orthogonalEdgeStyle;rounded=0;orthogonalLoop=1;jettySize=auto;html=1;exitX=0.25;exitY=1;exitDx=0;exitDy=0;entryX=0.75;entryY=0;entryDx=0;entryDy=0;fontSize=13;" edge="1" parent="1" source="tq_J3AxKNNJbVarFtTaU-1" target="tq_J3AxKNNJbVarFtTaU-10">
          <mxGeometry relative="1" as="geometry" />
        </mxCell>
        <mxCell id="tq_J3AxKNNJbVarFtTaU-72" style="edgeStyle=orthogonalEdgeStyle;rounded=0;orthogonalLoop=1;jettySize=auto;html=1;exitX=0.75;exitY=1;exitDx=0;exitDy=0;fontSize=13;" edge="1" parent="1" source="tq_J3AxKNNJbVarFtTaU-1" target="tq_J3AxKNNJbVarFtTaU-71">
          <mxGeometry relative="1" as="geometry" />
        </mxCell>
        <mxCell id="tq_J3AxKNNJbVarFtTaU-73" style="edgeStyle=orthogonalEdgeStyle;rounded=0;orthogonalLoop=1;jettySize=auto;html=1;exitX=0.5;exitY=1;exitDx=0;exitDy=0;fontSize=13;" edge="1" parent="1" source="tq_J3AxKNNJbVarFtTaU-1" target="tq_J3AxKNNJbVarFtTaU-70">
          <mxGeometry relative="1" as="geometry" />
        </mxCell>
        <mxCell id="tq_J3AxKNNJbVarFtTaU-1" value="SignUpController" style="rounded=0;whiteSpace=wrap;html=1;" vertex="1" parent="1">
          <mxGeometry x="795" y="685" width="120" height="35" as="geometry" />
        </mxCell>
        <mxCell id="tq_J3AxKNNJbVarFtTaU-2" value="MongoDb" style="rounded=0;whiteSpace=wrap;html=1;" vertex="1" parent="1">
          <mxGeometry x="890" y="90" width="120" height="40" as="geometry" />
        </mxCell>
        <mxCell id="tq_J3AxKNNJbVarFtTaU-3" value="Express" style="rounded=0;whiteSpace=wrap;html=1;" vertex="1" parent="1">
          <mxGeometry x="300" y="1050" width="120" height="40" as="geometry" />
        </mxCell>
        <mxCell id="tq_J3AxKNNJbVarFtTaU-4" value="Validator" style="rounded=0;whiteSpace=wrap;html=1;" vertex="1" parent="1">
          <mxGeometry x="420" y="915" width="120" height="40" as="geometry" />
        </mxCell>
        <mxCell id="tq_J3AxKNNJbVarFtTaU-13" style="edgeStyle=orthogonalEdgeStyle;rounded=0;orthogonalLoop=1;jettySize=auto;html=1;exitX=0.5;exitY=0;exitDx=0;exitDy=0;fontSize=13;" edge="1" parent="1" source="tq_J3AxKNNJbVarFtTaU-6" target="tq_J3AxKNNJbVarFtTaU-10">
          <mxGeometry relative="1" as="geometry" />
        </mxCell>
        <mxCell id="tq_J3AxKNNJbVarFtTaU-15" style="edgeStyle=orthogonalEdgeStyle;rounded=0;orthogonalLoop=1;jettySize=auto;html=1;exitX=0.5;exitY=1;exitDx=0;exitDy=0;fontSize=13;" edge="1" parent="1" source="tq_J3AxKNNJbVarFtTaU-6" target="tq_J3AxKNNJbVarFtTaU-3">
          <mxGeometry relative="1" as="geometry" />
        </mxCell>
        <mxCell id="tq_J3AxKNNJbVarFtTaU-6" value="ExpressRouteAdapter" style="rounded=0;whiteSpace=wrap;html=1;" vertex="1" parent="1">
          <mxGeometry x="632.5" y="940" width="135" height="40" as="geometry" />
        </mxCell>
        <mxCell id="tq_J3AxKNNJbVarFtTaU-9" value="&lt;b&gt;&lt;font style=&quot;font-size: 13px;&quot;&gt;Presentation&lt;/font&gt;&lt;/b&gt;" style="text;html=1;align=center;verticalAlign=middle;resizable=0;points=[];autosize=1;strokeColor=none;fillColor=none;" vertex="1" parent="1">
          <mxGeometry x="990" y="635" width="100" height="30" as="geometry" />
        </mxCell>
        <mxCell id="tq_J3AxKNNJbVarFtTaU-10" value="Controller" style="rounded=1;whiteSpace=wrap;html=1;fillStyle=auto;dashed=1;" vertex="1" parent="1">
          <mxGeometry x="632.5" y="790" width="120" height="35" as="geometry" />
        </mxCell>
        <mxCell id="tq_J3AxKNNJbVarFtTaU-24" style="edgeStyle=orthogonalEdgeStyle;rounded=0;orthogonalLoop=1;jettySize=auto;html=1;exitX=1;exitY=0.5;exitDx=0;exitDy=0;fontSize=13;" edge="1" parent="1" source="tq_J3AxKNNJbVarFtTaU-17" target="tq_J3AxKNNJbVarFtTaU-21">
          <mxGeometry relative="1" as="geometry" />
        </mxCell>
        <mxCell id="tq_J3AxKNNJbVarFtTaU-28" style="edgeStyle=orthogonalEdgeStyle;rounded=0;orthogonalLoop=1;jettySize=auto;html=1;exitX=0.5;exitY=1;exitDx=0;exitDy=0;entryX=0.5;entryY=0;entryDx=0;entryDy=0;fontSize=13;" edge="1" parent="1" source="tq_J3AxKNNJbVarFtTaU-17" target="tq_J3AxKNNJbVarFtTaU-4">
          <mxGeometry relative="1" as="geometry" />
        </mxCell>
        <mxCell id="tq_J3AxKNNJbVarFtTaU-17" value="EmailValidatorAdapter" style="rounded=0;whiteSpace=wrap;html=1;" vertex="1" parent="1">
          <mxGeometry x="410" y="750" width="140" height="40" as="geometry" />
        </mxCell>
        <mxCell id="tq_J3AxKNNJbVarFtTaU-21" value="EmailValidator" style="rounded=1;whiteSpace=wrap;html=1;fillStyle=auto;dashed=1;" vertex="1" parent="1">
          <mxGeometry x="640" y="685" width="120" height="35" as="geometry" />
        </mxCell>
        <mxCell id="tq_J3AxKNNJbVarFtTaU-26" value="&lt;b&gt;&lt;font style=&quot;font-size: 13px;&quot;&gt;Utils&lt;/font&gt;&lt;/b&gt;" style="text;html=1;align=center;verticalAlign=middle;resizable=0;points=[];autosize=1;strokeColor=none;fillColor=none;" vertex="1" parent="1">
          <mxGeometry x="495" y="635" width="50" height="30" as="geometry" />
        </mxCell>
        <mxCell id="tq_J3AxKNNJbVarFtTaU-29" value="AddAccount" style="rounded=1;whiteSpace=wrap;html=1;fillStyle=auto;dashed=1;" vertex="1" parent="1">
          <mxGeometry x="1190" y="755" width="120" height="35" as="geometry" />
        </mxCell>
        <mxCell id="tq_J3AxKNNJbVarFtTaU-31" value="&lt;b&gt;&lt;font style=&quot;font-size: 13px;&quot;&gt;Domain&lt;/font&gt;&lt;/b&gt;" style="text;html=1;align=center;verticalAlign=middle;resizable=0;points=[];autosize=1;strokeColor=none;fillColor=none;" vertex="1" parent="1">
          <mxGeometry x="1280" y="635" width="70" height="30" as="geometry" />
        </mxCell>
        <mxCell id="tq_J3AxKNNJbVarFtTaU-34" value="&lt;b&gt;&lt;font style=&quot;font-size: 13px;&quot;&gt;Data&lt;/font&gt;&lt;/b&gt;" style="text;html=1;align=center;verticalAlign=middle;resizable=0;points=[];autosize=1;strokeColor=none;fillColor=none;" vertex="1" parent="1">
          <mxGeometry x="1025" y="365" width="50" height="30" as="geometry" />
        </mxCell>
        <mxCell id="tq_J3AxKNNJbVarFtTaU-36" style="edgeStyle=orthogonalEdgeStyle;rounded=0;orthogonalLoop=1;jettySize=auto;html=1;exitX=0.5;exitY=1;exitDx=0;exitDy=0;entryX=0.5;entryY=0;entryDx=0;entryDy=0;fontSize=13;" edge="1" parent="1" source="tq_J3AxKNNJbVarFtTaU-35" target="tq_J3AxKNNJbVarFtTaU-29">
          <mxGeometry relative="1" as="geometry">
            <Array as="points">
              <mxPoint x="855" y="635" />
              <mxPoint x="1250" y="635" />
            </Array>
          </mxGeometry>
        </mxCell>
        <mxCell id="tq_J3AxKNNJbVarFtTaU-43" style="edgeStyle=orthogonalEdgeStyle;rounded=0;orthogonalLoop=1;jettySize=auto;html=1;exitX=0.5;exitY=0;exitDx=0;exitDy=0;fontSize=13;" edge="1" parent="1" source="tq_J3AxKNNJbVarFtTaU-35" target="tq_J3AxKNNJbVarFtTaU-42">
          <mxGeometry relative="1" as="geometry">
            <Array as="points">
              <mxPoint x="820" y="525" />
              <mxPoint x="820" y="500" />
              <mxPoint x="720" y="500" />
            </Array>
          </mxGeometry>
        </mxCell>
        <mxCell id="tq_J3AxKNNJbVarFtTaU-49" style="edgeStyle=orthogonalEdgeStyle;rounded=0;orthogonalLoop=1;jettySize=auto;html=1;exitX=0.75;exitY=0;exitDx=0;exitDy=0;entryX=0.5;entryY=1;entryDx=0;entryDy=0;fontSize=13;" edge="1" parent="1" source="tq_J3AxKNNJbVarFtTaU-35" target="tq_J3AxKNNJbVarFtTaU-48">
          <mxGeometry relative="1" as="geometry" />
        </mxCell>
        <mxCell id="tq_J3AxKNNJbVarFtTaU-53" style="edgeStyle=orthogonalEdgeStyle;rounded=0;orthogonalLoop=1;jettySize=auto;html=1;exitX=0.5;exitY=0;exitDx=0;exitDy=0;entryX=0.5;entryY=1;entryDx=0;entryDy=0;fontSize=13;" edge="1" parent="1" source="tq_J3AxKNNJbVarFtTaU-35" target="tq_J3AxKNNJbVarFtTaU-51">
          <mxGeometry relative="1" as="geometry" />
        </mxCell>
        <mxCell id="tq_J3AxKNNJbVarFtTaU-35" value="DbAddAccount" style="rounded=0;whiteSpace=wrap;html=1;" vertex="1" parent="1">
          <mxGeometry x="795" y="525" width="120" height="40" as="geometry" />
        </mxCell>
        <mxCell id="tq_J3AxKNNJbVarFtTaU-37" value="BCrypt" style="rounded=0;whiteSpace=wrap;html=1;" vertex="1" parent="1">
          <mxGeometry x="620" y="90" width="120" height="35" as="geometry" />
        </mxCell>
        <mxCell id="tq_J3AxKNNJbVarFtTaU-45" style="edgeStyle=orthogonalEdgeStyle;rounded=0;orthogonalLoop=1;jettySize=auto;html=1;exitX=0.5;exitY=1;exitDx=0;exitDy=0;entryX=0.5;entryY=0;entryDx=0;entryDy=0;fontSize=13;" edge="1" parent="1" source="tq_J3AxKNNJbVarFtTaU-40" target="tq_J3AxKNNJbVarFtTaU-42">
          <mxGeometry relative="1" as="geometry" />
        </mxCell>
        <mxCell id="tq_J3AxKNNJbVarFtTaU-60" style="edgeStyle=orthogonalEdgeStyle;rounded=0;orthogonalLoop=1;jettySize=auto;html=1;exitX=0.5;exitY=0;exitDx=0;exitDy=0;fontSize=13;" edge="1" parent="1" source="tq_J3AxKNNJbVarFtTaU-40" target="tq_J3AxKNNJbVarFtTaU-37">
          <mxGeometry relative="1" as="geometry" />
        </mxCell>
        <mxCell id="tq_J3AxKNNJbVarFtTaU-40" value="BCryptAdapter" style="rounded=0;whiteSpace=wrap;html=1;" vertex="1" parent="1">
          <mxGeometry x="620" y="240" width="120" height="35" as="geometry" />
        </mxCell>
        <mxCell id="tq_J3AxKNNJbVarFtTaU-42" value="Encrypter" style="rounded=1;whiteSpace=wrap;html=1;fillStyle=auto;dashed=1;" vertex="1" parent="1">
          <mxGeometry x="660" y="440" width="120" height="35" as="geometry" />
        </mxCell>
        <mxCell id="tq_J3AxKNNJbVarFtTaU-50" style="edgeStyle=orthogonalEdgeStyle;rounded=0;orthogonalLoop=1;jettySize=auto;html=1;exitX=0.5;exitY=1;exitDx=0;exitDy=0;fontSize=13;" edge="1" parent="1" source="tq_J3AxKNNJbVarFtTaU-46" target="tq_J3AxKNNJbVarFtTaU-48">
          <mxGeometry relative="1" as="geometry" />
        </mxCell>
        <mxCell id="tq_J3AxKNNJbVarFtTaU-59" style="edgeStyle=orthogonalEdgeStyle;rounded=0;orthogonalLoop=1;jettySize=auto;html=1;entryX=0.75;entryY=1;entryDx=0;entryDy=0;fontSize=13;" edge="1" parent="1" source="tq_J3AxKNNJbVarFtTaU-46" target="tq_J3AxKNNJbVarFtTaU-2">
          <mxGeometry relative="1" as="geometry" />
        </mxCell>
        <mxCell id="tq_J3AxKNNJbVarFtTaU-46" value="AddUserMongoRepo" style="rounded=0;whiteSpace=wrap;html=1;" vertex="1" parent="1">
          <mxGeometry x="955" y="237.5" width="120" height="40" as="geometry" />
        </mxCell>
        <mxCell id="tq_J3AxKNNJbVarFtTaU-48" value="AddUserRepo" style="rounded=1;whiteSpace=wrap;html=1;fillStyle=auto;dashed=1;" vertex="1" parent="1">
          <mxGeometry x="930" y="440" width="120" height="35" as="geometry" />
        </mxCell>
        <mxCell id="tq_J3AxKNNJbVarFtTaU-51" value="AddUserRepo" style="rounded=1;whiteSpace=wrap;html=1;fillStyle=auto;dashed=1;" vertex="1" parent="1">
          <mxGeometry x="795" y="440" width="120" height="35" as="geometry" />
        </mxCell>
        <mxCell id="tq_J3AxKNNJbVarFtTaU-56" style="edgeStyle=orthogonalEdgeStyle;rounded=0;orthogonalLoop=1;jettySize=auto;html=1;exitX=0.5;exitY=1;exitDx=0;exitDy=0;fontSize=13;" edge="1" parent="1" source="tq_J3AxKNNJbVarFtTaU-54" target="tq_J3AxKNNJbVarFtTaU-51">
          <mxGeometry relative="1" as="geometry" />
        </mxCell>
        <mxCell id="tq_J3AxKNNJbVarFtTaU-58" style="edgeStyle=orthogonalEdgeStyle;rounded=0;orthogonalLoop=1;jettySize=auto;html=1;exitX=0.5;exitY=0;exitDx=0;exitDy=0;entryX=0.25;entryY=1;entryDx=0;entryDy=0;fontSize=13;" edge="1" parent="1" source="tq_J3AxKNNJbVarFtTaU-54" target="tq_J3AxKNNJbVarFtTaU-2">
          <mxGeometry relative="1" as="geometry" />
        </mxCell>
        <mxCell id="tq_J3AxKNNJbVarFtTaU-54" value="LoadUserByEmailMongoRepo" style="rounded=0;whiteSpace=wrap;html=1;" vertex="1" parent="1">
          <mxGeometry x="767.5" y="237.5" width="175" height="40" as="geometry" />
        </mxCell>
        <mxCell id="tq_J3AxKNNJbVarFtTaU-62" value="&lt;b&gt;&lt;font style=&quot;font-size: 13px;&quot;&gt;Presentation&lt;/font&gt;&lt;/b&gt;" style="text;html=1;align=center;verticalAlign=middle;resizable=0;points=[];autosize=1;strokeColor=none;fillColor=none;" vertex="1" parent="1">
          <mxGeometry x="990" y="885" width="100" height="30" as="geometry" />
        </mxCell>
        <mxCell id="tq_J3AxKNNJbVarFtTaU-63" value="SignUpComposer" style="rounded=0;whiteSpace=wrap;html=1;" vertex="1" parent="1">
          <mxGeometry x="930" y="1060" width="135" height="40" as="geometry" />
        </mxCell>
        <mxCell id="tq_J3AxKNNJbVarFtTaU-65" style="edgeStyle=orthogonalEdgeStyle;rounded=0;orthogonalLoop=1;jettySize=auto;html=1;exitX=0;exitY=0.5;exitDx=0;exitDy=0;entryX=1;entryY=0.5;entryDx=0;entryDy=0;fontSize=13;" edge="1" parent="1" source="tq_J3AxKNNJbVarFtTaU-64" target="tq_J3AxKNNJbVarFtTaU-6">
          <mxGeometry relative="1" as="geometry" />
        </mxCell>
        <mxCell id="tq_J3AxKNNJbVarFtTaU-64" value="SignUpRouter" style="rounded=0;whiteSpace=wrap;html=1;" vertex="1" parent="1">
          <mxGeometry x="787.5" y="940" width="135" height="40" as="geometry" />
        </mxCell>
        <mxCell id="tq_J3AxKNNJbVarFtTaU-67" style="edgeStyle=orthogonalEdgeStyle;rounded=0;orthogonalLoop=1;jettySize=auto;html=1;exitX=0.5;exitY=0;exitDx=0;exitDy=0;fontSize=13;" edge="1" parent="1" source="tq_J3AxKNNJbVarFtTaU-66" target="tq_J3AxKNNJbVarFtTaU-64">
          <mxGeometry relative="1" as="geometry" />
        </mxCell>
        <mxCell id="tq_J3AxKNNJbVarFtTaU-66" value="App" style="rounded=0;whiteSpace=wrap;html=1;" vertex="1" parent="1">
          <mxGeometry x="787.5" y="1010" width="135" height="40" as="geometry" />
        </mxCell>
        <mxCell id="tq_J3AxKNNJbVarFtTaU-70" value="HttpResponse" style="rounded=1;whiteSpace=wrap;html=1;fillStyle=auto;dashed=1;" vertex="1" parent="1">
          <mxGeometry x="770" y="790" width="120" height="35" as="geometry" />
        </mxCell>
        <mxCell id="tq_J3AxKNNJbVarFtTaU-71" value="HttpRequest" style="rounded=1;whiteSpace=wrap;html=1;fillStyle=auto;dashed=1;" vertex="1" parent="1">
          <mxGeometry x="922.5" y="790" width="120" height="35" as="geometry" />
        </mxCell>
      </root>
    </mxGraphModel>
  </diagram>
</mxfile>
